<mxfile host="app.diagrams.net" modified="2020-03-18T18:01:30.683Z" agent="Mozilla/5.0 (Windows NT 10.0; Win64; x64; rv:73.0) Gecko/20100101 Firefox/73.0" etag="mS8FmJW0F4rlwbKr1e7m" version="12.8.8" type="github">
  <diagram id="oHiCprA3IFH8lGFRSojk" name="Page-1">
    <mxGraphModel dx="1104" dy="602" grid="1" gridSize="10" guides="1" tooltips="1" connect="1" arrows="1" fold="1" page="1" pageScale="1" pageWidth="850" pageHeight="1100" math="0" shadow="0">
      <root>
        <mxCell id="0" />
        <mxCell id="1" parent="0" />
        <mxCell id="_5pC-eJP8VTCjAJsRGtt-10" style="edgeStyle=orthogonalEdgeStyle;rounded=0;orthogonalLoop=1;jettySize=auto;html=1;exitX=0.5;exitY=1;exitDx=0;exitDy=0;entryX=0;entryY=0.3;entryDx=0;entryDy=0;" parent="1" source="_5pC-eJP8VTCjAJsRGtt-1" target="_5pC-eJP8VTCjAJsRGtt-4" edge="1">
          <mxGeometry relative="1" as="geometry" />
        </mxCell>
        <mxCell id="_5pC-eJP8VTCjAJsRGtt-1" value="&lt;div&gt;&lt;b&gt;SNC_Change_REST&lt;/b&gt;&lt;/div&gt;&lt;div&gt;&lt;b&gt;API&lt;br&gt;&lt;/b&gt;&lt;/div&gt;&lt;div&gt;&lt;b&gt;(OR)&lt;/b&gt;&lt;/div&gt;&lt;div&gt;&lt;b&gt;Template&lt;br&gt;&lt;/b&gt;&lt;/div&gt;" style="whiteSpace=wrap;html=1;aspect=fixed;fillColor=#fff2cc;strokeColor=#d6b656;" parent="1" vertex="1">
          <mxGeometry x="80" y="100" width="120" height="120" as="geometry" />
        </mxCell>
        <mxCell id="_5pC-eJP8VTCjAJsRGtt-4" value="&lt;b&gt;Change Request TABLE&lt;/b&gt;" style="shape=cylinder;whiteSpace=wrap;html=1;boundedLbl=1;backgroundOutline=1;fillColor=#dae8fc;strokeColor=#6c8ebf;" parent="1" vertex="1">
          <mxGeometry x="280" y="290" width="130" height="150" as="geometry" />
        </mxCell>
        <mxCell id="_5pC-eJP8VTCjAJsRGtt-14" style="edgeStyle=orthogonalEdgeStyle;rounded=0;orthogonalLoop=1;jettySize=auto;html=1;exitX=0;exitY=0.5;exitDx=0;exitDy=0;entryX=0.5;entryY=1;entryDx=0;entryDy=0;" parent="1" source="_5pC-eJP8VTCjAJsRGtt-6" target="_5pC-eJP8VTCjAJsRGtt-4" edge="1">
          <mxGeometry relative="1" as="geometry" />
        </mxCell>
        <mxCell id="_5pC-eJP8VTCjAJsRGtt-6" value="&lt;b&gt;Our Custom API&lt;br&gt;&lt;/b&gt;" style="rhombus;whiteSpace=wrap;html=1;fillColor=#e1d5e7;strokeColor=#9673a6;" parent="1" vertex="1">
          <mxGeometry x="700" y="340" width="130" height="130" as="geometry" />
        </mxCell>
        <mxCell id="_5pC-eJP8VTCjAJsRGtt-11" style="edgeStyle=orthogonalEdgeStyle;rounded=0;orthogonalLoop=1;jettySize=auto;html=1;exitX=0.5;exitY=1;exitDx=0;exitDy=0;entryX=0.5;entryY=0;entryDx=0;entryDy=0;" parent="1" source="_5pC-eJP8VTCjAJsRGtt-7" target="_5pC-eJP8VTCjAJsRGtt-4" edge="1">
          <mxGeometry relative="1" as="geometry" />
        </mxCell>
        <mxCell id="_5pC-eJP8VTCjAJsRGtt-7" value="&lt;b&gt;Catalog API&lt;/b&gt;" style="whiteSpace=wrap;html=1;aspect=fixed;fillColor=#fff2cc;strokeColor=#d6b656;" parent="1" vertex="1">
          <mxGeometry x="260" y="100" width="120" height="120" as="geometry" />
        </mxCell>
        <mxCell id="_5pC-eJP8VTCjAJsRGtt-12" style="edgeStyle=orthogonalEdgeStyle;rounded=0;orthogonalLoop=1;jettySize=auto;html=1;exitX=0.5;exitY=1;exitDx=0;exitDy=0;entryX=1;entryY=0.5;entryDx=0;entryDy=0;" parent="1" source="_5pC-eJP8VTCjAJsRGtt-8" target="_5pC-eJP8VTCjAJsRGtt-4" edge="1">
          <mxGeometry relative="1" as="geometry" />
        </mxCell>
        <mxCell id="_5pC-eJP8VTCjAJsRGtt-8" value="&lt;b&gt;Table API&lt;br&gt;&lt;/b&gt;" style="whiteSpace=wrap;html=1;aspect=fixed;fillColor=#fff2cc;strokeColor=#d6b656;" parent="1" vertex="1">
          <mxGeometry x="460" y="100" width="120" height="120" as="geometry" />
        </mxCell>
        <mxCell id="ZsD5a7K_35UhfZUO9bxD-1" value="&lt;b&gt;ServiceNow APIs&lt;br&gt;&lt;/b&gt;" style="rounded=1;whiteSpace=wrap;html=1;fillColor=#fff2cc;strokeColor=#d6b656;" vertex="1" parent="1">
          <mxGeometry x="90" y="10" width="490" height="60" as="geometry" />
        </mxCell>
      </root>
    </mxGraphModel>
  </diagram>
</mxfile>
